<?xml version="1.0" encoding="UTF-8" standalone="no"?>
<!-- Created with Inkscape (http://www.inkscape.org/) -->

<svg
   width="350"
   height="62.5"
   viewBox="0 0 92.604168 16.536457"
   version="1.1"
   id="svg1"
   inkscape:version="1.4-dev (1:1.4.0-dev+202403210151+2fe0648968)"
   sodipodi:docname="sda.svg"
   xmlns:inkscape="http://www.inkscape.org/namespaces/inkscape"
   xmlns:sodipodi="http://sodipodi.sourceforge.net/DTD/sodipodi-0.dtd"
   xmlns="http://www.w3.org/2000/svg"
   xmlns:svg="http://www.w3.org/2000/svg">
  <sodipodi:namedview
     id="namedview1"
     pagecolor="#ffffff"
     bordercolor="#000000"
     borderopacity="0.25"
     inkscape:showpageshadow="2"
     inkscape:pageopacity="0.0"
     inkscape:pagecheckerboard="0"
     inkscape:deskcolor="#d1d1d1"
     inkscape:document-units="px"
     inkscape:zoom="2.7473906"
     inkscape:cx="170.34345"
     inkscape:cy="66.426668"
     inkscape:window-width="1854"
     inkscape:window-height="1003"
     inkscape:window-x="0"
     inkscape:window-y="0"
     inkscape:window-maximized="1"
     inkscape:current-layer="layer1" />
  <defs
     id="defs1">
    <clipPath
       clipPathUnits="userSpaceOnUse"
       id="clipPath21">
      <path
         d="M 0,3388.487 H 6458.447 V 0 H 0 Z"
         transform="translate(-383.22361,-3073.88)"
         id="path21" />
    </clipPath>
    <clipPath
       clipPathUnits="userSpaceOnUse"
       id="clipPath23">
      <path
         d="M 0,3388.487 H 6458.447 V 0 H 0 Z"
         transform="translate(-505.61641,-3075.2608)"
         id="path23" />
    </clipPath>
    <clipPath
       clipPathUnits="userSpaceOnUse"
       id="clipPath25">
      <path
         d="M 0,3388.487 H 6458.447 V 0 H 0 Z"
         transform="translate(-335.39381,-3016.8824)"
         id="path25" />
    </clipPath>
    <clipPath
       clipPathUnits="userSpaceOnUse"
       id="clipPath27">
      <path
         d="M 0,3388.487 H 6458.447 V 0 H 0 Z"
         transform="translate(-567.96622,-3090.266)"
         id="path27" />
    </clipPath>
    <clipPath
       clipPathUnits="userSpaceOnUse"
       id="clipPath29">
      <path
         d="M 0,3388.487 H 6458.447 V 0 H 0 Z"
         transform="translate(-581.22331,-3090.266)"
         id="path29" />
    </clipPath>
    <clipPath
       clipPathUnits="userSpaceOnUse"
       id="clipPath31">
      <path
         d="M 0,3388.487 H 6458.447 V 0 H 0 Z"
         transform="translate(-593.87711,-3090.266)"
         id="path31" />
    </clipPath>
    <clipPath
       clipPathUnits="userSpaceOnUse"
       id="clipPath33">
      <path
         d="M 0,3388.487 H 6458.447 V 0 H 0 Z"
         transform="translate(0,2.5000001e-5)"
         id="path33" />
    </clipPath>
    <clipPath
       clipPathUnits="userSpaceOnUse"
       id="clipPath35">
      <path
         d="M 0,3388.487 H 6458.447 V 0 H 0 Z"
         transform="translate(-619.20611,-3076.5841)"
         id="path35" />
    </clipPath>
    <clipPath
       clipPathUnits="userSpaceOnUse"
       id="clipPath37">
      <path
         d="M 0,3388.487 H 6458.447 V 0 H 0 Z"
         transform="translate(-641.56252,-3082.7101)"
         id="path37" />
    </clipPath>
    <clipPath
       clipPathUnits="userSpaceOnUse"
       id="clipPath39">
      <path
         d="M 0,3388.487 H 6458.447 V 0 H 0 Z"
         transform="translate(-660.47492,-3088.3661)"
         id="path39" />
    </clipPath>
    <clipPath
       clipPathUnits="userSpaceOnUse"
       id="clipPath41">
      <path
         d="M 0,3388.487 H 6458.447 V 0 H 0 Z"
         transform="translate(-669.10462,-3090.266)"
         id="path41" />
    </clipPath>
    <clipPath
       clipPathUnits="userSpaceOnUse"
       id="clipPath43">
      <path
         d="M 0,3388.487 H 6458.447 V 0 H 0 Z"
         transform="translate(-691.77341,-3090.266)"
         id="path43" />
    </clipPath>
    <clipPath
       clipPathUnits="userSpaceOnUse"
       id="clipPath45">
      <path
         d="M 0,3388.487 H 6458.447 V 0 H 0 Z"
         transform="translate(-708.65232,-3082.9999)"
         id="path45" />
    </clipPath>
    <clipPath
       clipPathUnits="userSpaceOnUse"
       id="clipPath47">
      <path
         d="M 0,3388.487 H 6458.447 V 0 H 0 Z"
         transform="translate(-578.74271,-3061.3258)"
         id="path47" />
    </clipPath>
    <clipPath
       clipPathUnits="userSpaceOnUse"
       id="clipPath49">
      <path
         d="M 0,3388.487 H 6458.447 V 0 H 0 Z"
         transform="translate(-590.90351,-3064.5006)"
         id="path49" />
    </clipPath>
    <clipPath
       clipPathUnits="userSpaceOnUse"
       id="clipPath51">
      <path
         d="M 0,3388.487 H 6458.447 V 0 H 0 Z"
         transform="translate(-601.05431,-3066.4002)"
         id="path51" />
    </clipPath>
    <clipPath
       clipPathUnits="userSpaceOnUse"
       id="clipPath53">
      <path
         d="M 0,3388.487 H 6458.447 V 0 H 0 Z"
         transform="translate(-623.76701,-3058.8443)"
         id="path53" />
    </clipPath>
    <clipPath
       clipPathUnits="userSpaceOnUse"
       id="clipPath55">
      <path
         d="M 0,3388.487 H 6458.447 V 0 H 0 Z"
         transform="translate(-637.51612,-3056.7875)"
         id="path55" />
    </clipPath>
    <clipPath
       clipPathUnits="userSpaceOnUse"
       id="clipPath57">
      <path
         d="M 0,3388.487 H 6458.447 V 0 H 0 Z"
         transform="translate(-649.02971,-3066.4002)"
         id="path57" />
    </clipPath>
    <clipPath
       clipPathUnits="userSpaceOnUse"
       id="clipPath59">
      <path
         d="M 0,3388.487 H 6458.447 V 0 H 0 Z"
         transform="translate(-669.44051,-3056.6976)"
         id="path59" />
    </clipPath>
    <clipPath
       clipPathUnits="userSpaceOnUse"
       id="clipPath61">
      <path
         d="M 0,3388.487 H 6458.447 V 0 H 0 Z"
         transform="translate(0,2.5000001e-5)"
         id="path61" />
    </clipPath>
    <clipPath
       clipPathUnits="userSpaceOnUse"
       id="clipPath63">
      <path
         d="M 0,3388.487 H 6458.447 V 0 H 0 Z"
         transform="translate(-569.54281,-3042.6351)"
         id="path63" />
    </clipPath>
    <clipPath
       clipPathUnits="userSpaceOnUse"
       id="clipPath65">
      <path
         d="M 0,3388.487 H 6458.447 V 0 H 0 Z"
         transform="translate(-581.24671,-3031.4037)"
         id="path65" />
    </clipPath>
    <clipPath
       clipPathUnits="userSpaceOnUse"
       id="clipPath67">
      <path
         d="M 0,3388.487 H 6458.447 V 0 H 0 Z"
         transform="translate(-586.53301,-3035.0255)"
         id="path67" />
    </clipPath>
    <clipPath
       clipPathUnits="userSpaceOnUse"
       id="clipPath69">
      <path
         d="M 0,3388.487 H 6458.447 V 0 H 0 Z"
         transform="translate(-595.11791,-3039.8099)"
         id="path69" />
    </clipPath>
    <clipPath
       clipPathUnits="userSpaceOnUse"
       id="clipPath71">
      <path
         d="M 0,3388.487 H 6458.447 V 0 H 0 Z"
         transform="translate(-603.37961,-3036.2232)"
         id="path71" />
    </clipPath>
    <clipPath
       clipPathUnits="userSpaceOnUse"
       id="clipPath73">
      <path
         d="M 0,3388.487 H 6458.447 V 0 H 0 Z"
         transform="translate(-611.48422,-3032.3937)"
         id="path73" />
    </clipPath>
    <clipPath
       clipPathUnits="userSpaceOnUse"
       id="clipPath75">
      <path
         d="M 0,3388.487 H 6458.447 V 0 H 0 Z"
         transform="translate(0,2.5000001e-5)"
         id="path75" />
    </clipPath>
    <clipPath
       clipPathUnits="userSpaceOnUse"
       id="clipPath77">
      <path
         d="M 0,3388.487 H 6458.447 V 0 H 0 Z"
         transform="translate(0,2.5000001e-5)"
         id="path77" />
    </clipPath>
    <clipPath
       clipPathUnits="userSpaceOnUse"
       id="clipPath79">
      <path
         d="M 0,3388.487 H 6458.447 V 0 H 0 Z"
         transform="translate(-625.26842,-3038.5184)"
         id="path79" />
    </clipPath>
    <clipPath
       clipPathUnits="userSpaceOnUse"
       id="clipPath81">
      <path
         d="M 0,3388.487 H 6458.447 V 0 H 0 Z"
         transform="translate(-629.47012,-3034.0501)"
         id="path81" />
    </clipPath>
    <clipPath
       clipPathUnits="userSpaceOnUse"
       id="clipPath83">
      <path
         d="M 0,3388.487 H 6458.447 V 0 H 0 Z"
         transform="translate(-637.57562,-3033.9857)"
         id="path83" />
    </clipPath>
    <clipPath
       clipPathUnits="userSpaceOnUse"
       id="clipPath85">
      <path
         d="M 0,3388.487 H 6458.447 V 0 H 0 Z"
         transform="translate(-647.91772,-3037.7296)"
         id="path85" />
    </clipPath>
    <clipPath
       clipPathUnits="userSpaceOnUse"
       id="clipPath87">
      <path
         d="M 0,3388.487 H 6458.447 V 0 H 0 Z"
         transform="translate(-654.12842,-3039.8099)"
         id="path87" />
    </clipPath>
    <clipPath
       clipPathUnits="userSpaceOnUse"
       id="clipPath89">
      <path
         d="M 0,3388.487 H 6458.447 V 0 H 0 Z"
         transform="translate(-665.91142,-3037.629)"
         id="path89" />
    </clipPath>
    <clipPath
       clipPathUnits="userSpaceOnUse"
       id="clipPath91">
      <path
         d="M 0,3388.487 H 6458.447 V 0 H 0 Z"
         transform="translate(-673.65092,-3032.3937)"
         id="path91" />
    </clipPath>
    <clipPath
       clipPathUnits="userSpaceOnUse"
       id="clipPath93">
      <path
         d="M 0,3388.487 H 6458.447 V 0 H 0 Z"
         transform="translate(-677.78132,-3039.8099)"
         id="path93" />
    </clipPath>
    <clipPath
       clipPathUnits="userSpaceOnUse"
       id="clipPath95">
      <path
         d="M 0,3388.487 H 6458.447 V 0 H 0 Z"
         transform="translate(-693.45941,-3036.2232)"
         id="path95" />
    </clipPath>
    <clipPath
       clipPathUnits="userSpaceOnUse"
       id="clipPath97">
      <path
         d="M 0,3388.487 H 6458.447 V 0 H 0 Z"
         transform="translate(-699.74242,-3039.8099)"
         id="path97" />
    </clipPath>
    <clipPath
       clipPathUnits="userSpaceOnUse"
       id="clipPath99">
      <path
         d="M 0,3388.487 H 6458.447 V 0 H 0 Z"
         transform="translate(0,2.5000001e-5)"
         id="path99" />
    </clipPath>
    <clipPath
       clipPathUnits="userSpaceOnUse"
       id="clipPath101">
      <path
         d="M 0,3388.487 H 6458.447 V 0 H 0 Z"
         transform="translate(-708.70702,-3038.5184)"
         id="path101" />
    </clipPath>
    <clipPath
       clipPathUnits="userSpaceOnUse"
       id="clipPath103">
      <path
         d="M 0,3388.487 H 6458.447 V 0 H 0 Z"
         transform="translate(-712.90862,-3034.0501)"
         id="path103" />
    </clipPath>
    <clipPath
       clipPathUnits="userSpaceOnUse"
       id="clipPath105">
      <path
         d="M 0,3388.487 H 6458.447 V 0 H 0 Z"
         transform="translate(-571.46501,-3023.5675)"
         id="path105" />
    </clipPath>
    <clipPath
       clipPathUnits="userSpaceOnUse"
       id="clipPath107">
      <path
         d="M 0,3388.487 H 6458.447 V 0 H 0 Z"
         transform="translate(-588.27551,-3027.1961)"
         id="path107" />
    </clipPath>
    <clipPath
       clipPathUnits="userSpaceOnUse"
       id="clipPath109">
      <path
         d="M 0,3388.487 H 6458.447 V 0 H 0 Z"
         transform="translate(-590.91521,-3024.3709)"
         id="path109" />
    </clipPath>
    <clipPath
       clipPathUnits="userSpaceOnUse"
       id="clipPath111">
      <path
         d="M 0,3388.487 H 6458.447 V 0 H 0 Z"
         transform="translate(-601.75232,-3018.1954)"
         id="path111" />
    </clipPath>
    <clipPath
       clipPathUnits="userSpaceOnUse"
       id="clipPath113">
      <path
         d="M 0,3388.487 H 6458.447 V 0 H 0 Z"
         transform="translate(0,2.5000001e-5)"
         id="path113" />
    </clipPath>
    <clipPath
       clipPathUnits="userSpaceOnUse"
       id="clipPath115">
      <path
         d="M 0,3388.487 H 6458.447 V 0 H 0 Z"
         transform="translate(-610.30792,-3024.3709)"
         id="path115" />
    </clipPath>
    <clipPath
       clipPathUnits="userSpaceOnUse"
       id="clipPath117">
      <path
         d="M 0,3388.487 H 6458.447 V 0 H 0 Z"
         transform="translate(-622.09181,-3022.19)"
         id="path117" />
    </clipPath>
    <clipPath
       clipPathUnits="userSpaceOnUse"
       id="clipPath119">
      <path
         d="M 0,3388.487 H 6458.447 V 0 H 0 Z"
         transform="translate(-629.79422,-3022.19)"
         id="path119" />
    </clipPath>
    <clipPath
       clipPathUnits="userSpaceOnUse"
       id="clipPath121">
      <path
         d="M 0,3388.487 H 6458.447 V 0 H 0 Z"
         transform="translate(-633.64541,-3024.3709)"
         id="path121" />
    </clipPath>
    <clipPath
       clipPathUnits="userSpaceOnUse"
       id="clipPath123">
      <path
         d="M 0,3388.487 H 6458.447 V 0 H 0 Z"
         transform="translate(0,2.5000001e-5)"
         id="path123" />
    </clipPath>
    <clipPath
       clipPathUnits="userSpaceOnUse"
       id="clipPath125">
      <path
         d="M 0,3388.487 H 6458.447 V 0 H 0 Z"
         transform="translate(-641.64941,-3024.3709)"
         id="path125" />
    </clipPath>
    <clipPath
       clipPathUnits="userSpaceOnUse"
       id="clipPath127">
      <path
         d="M 0,3388.487 H 6458.447 V 0 H 0 Z"
         transform="translate(-652.48552,-3018.1954)"
         id="path127" />
    </clipPath>
  </defs>
  <g
     inkscape:label="Layer 1"
     inkscape:groupmode="layer"
     id="layer1">
    <g
       id="g1534"
       transform="matrix(0.15556457,0,0,0.15556457,-30.151057,-38.161246)">
      <path
         id="path20"
         d="m 0,0 h 30.266 c 11.205,0 20.289,-9.084 20.289,-20.289 0,-11.206 -9.084,-20.289 -20.289,-20.289 H 0 c -0.71,0 -1.286,0.575 -1.286,1.286 V -1.286 C -1.286,-0.576 -0.71,0 0,0 m 66.975,-20.288 c 0,20.236 -16.405,36.641 -36.641,36.641 H 15.146 v 0.066 h -30.279 c -1.421,0 -2.572,-1.151 -2.572,-2.571 v -19.549 -8.685 -1.508 -13.832 -24.7 c 0,-1.42 1.151,-2.572 2.572,-2.572 h 30.279 v 0.069 h 15.188 c 20.236,0 36.641,16.405 36.641,36.641"
         style="fill:#8a2432;fill-opacity:1;fill-rule:evenodd;stroke:none"
         transform="matrix(1.3333333,0,0,-1.3333333,340.91139,271.70958)"
         clip-path="url(#clipPath21)" />
      <path
         id="path22"
         d="m 0,0 -6.816,13.556 c -0.436,0.868 -1.325,1.416 -2.297,1.416 h -14.293 c -0.972,0 -1.861,-0.548 -2.298,-1.417 L -31.401,2.222 -60.079,-54.583 c -0.863,-1.711 0.38,-3.73 2.296,-3.73 h 13.372 c 0.971,0 1.859,0.546 2.296,1.413 l 24.712,48.967 c 0.475,0.942 1.82,0.942 2.296,-0.001 L 9.595,-56.9 c 0.437,-0.867 1.325,-1.413 2.296,-1.413 h 13.373 c 1.915,0 3.158,2.019 2.296,3.73 z"
         style="fill:#8a2432;fill-opacity:1;fill-rule:evenodd;stroke:none"
         transform="matrix(1.3333333,0,0,-1.3333333,504.10179,269.86852)"
         clip-path="url(#clipPath23)" />
      <path
         id="path24"
         d="m 0,0 h -56.892 c -1.421,0 -2.572,1.151 -2.572,2.572 v 11.276 c 0,1.42 1.151,2.571 2.572,2.571 h 56.891 c 3.336,0 6.04,2.704 6.04,6.04 0,3.336 -2.704,6.04 -6.04,6.04 h -21.756 -3.856 -14.419 c -12.403,0 -22.459,10.055 -22.459,22.459 0,12.404 10.056,22.459 22.459,22.459 h 14.419 3.856 38.849 c 1.42,0 2.572,-1.152 2.572,-2.572 V 59.569 c 0,-1.42 -1.152,-2.571 -2.572,-2.571 h -57.124 c -3.335,0 -6.039,-2.705 -6.039,-6.04 0,-3.336 2.704,-6.04 6.039,-6.04 H 0 c 12.404,0 22.459,-10.055 22.459,-22.459 C 22.459,10.055 12.404,0 0,0"
         style="fill:#8a2432;fill-opacity:1;fill-rule:evenodd;stroke:none"
         transform="matrix(1.3333333,0,0,-1.3333333,277.13832,347.70638)"
         clip-path="url(#clipPath25)" />
      <path
         id="path26"
         d="M 0,0 H 11.023 V -2.414 H 2.795 v -4.181 h 7.221 v -2.28 H 2.795 v -7.087 H 0 Z"
         style="fill:#000000;fill-opacity:1;fill-rule:nonzero;stroke:none"
         transform="matrix(1.3333333,0,0,-1.3333333,587.23486,249.86158)"
         clip-path="url(#clipPath27)" />
      <path
         id="path28"
         d="m 0,0 h 2.795 v -13.548 h 8.115 v -2.414 H 0 Z"
         style="fill:#000000;fill-opacity:1;fill-rule:nonzero;stroke:none"
         transform="matrix(1.3333333,0,0,-1.3333333,604.91099,249.86158)"
         clip-path="url(#clipPath29)" />
      <path
         id="path30"
         d="m 0,0 h 2.795 v -9.301 c 0,-0.535 0.025,-1.08 0.078,-1.631 0.052,-0.551 0.201,-1.047 0.447,-1.486 0.246,-0.441 0.618,-0.802 1.118,-1.085 0.499,-0.283 1.204,-0.425 2.112,-0.425 0.909,0 1.614,0.142 2.113,0.425 0.5,0.283 0.872,0.644 1.118,1.085 0.246,0.439 0.395,0.935 0.447,1.486 0.053,0.551 0.079,1.096 0.079,1.631 V 0 h 2.794 v -10.216 c 0,-1.029 -0.156,-1.923 -0.47,-2.684 -0.312,-0.759 -0.756,-1.397 -1.329,-1.911 -0.574,-0.514 -1.264,-0.898 -2.069,-1.151 -0.804,-0.253 -1.699,-0.38 -2.683,-0.38 -0.983,0 -1.877,0.127 -2.682,0.38 -0.805,0.253 -1.495,0.637 -2.068,1.151 -0.574,0.514 -1.017,1.152 -1.33,1.911 C 0.157,-12.139 0,-11.245 0,-10.216 Z"
         style="fill:#000000;fill-opacity:1;fill-rule:nonzero;stroke:none"
         transform="matrix(1.3333333,0,0,-1.3333333,621.78272,249.86158)"
         clip-path="url(#clipPath31)" />
      <path
         id="path32"
         d="m 610.197,3090.266 h 2.795 v -15.962 h -2.795 z"
         style="fill:#000000;fill-opacity:1;fill-rule:nonzero;stroke:none"
         transform="matrix(1.3333333,0,0,-1.3333333,-170.05341,4370.2161)"
         clip-path="url(#clipPath33)" />
      <path
         id="path34"
         d="M 0,0 H 2.75 C 3.838,0 4.729,0.146 5.422,0.436 6.114,0.726 6.659,1.129 7.053,1.643 7.449,2.157 7.716,2.761 7.859,3.454 8,4.147 8.07,4.896 8.07,5.701 8.07,6.506 8,7.254 7.859,7.948 7.716,8.641 7.449,9.244 7.053,9.758 6.659,10.273 6.114,10.675 5.422,10.966 4.729,11.256 3.838,11.401 2.75,11.401 H 0 Z m -2.795,13.682 h 6.618 c 1.222,0 2.28,-0.209 3.174,-0.626 0.895,-0.418 1.625,-0.988 2.191,-1.71 0.566,-0.724 0.988,-1.569 1.263,-2.537 0.277,-0.97 0.414,-2.006 0.414,-3.108 0,-1.103 -0.137,-2.139 -0.414,-3.108 C 10.176,1.625 9.754,0.778 9.188,0.056 8.622,-0.668 7.892,-1.238 6.997,-1.655 6.103,-2.072 5.045,-2.28 3.823,-2.28 h -6.618 z"
         style="fill:#000000;fill-opacity:1;fill-rule:nonzero;stroke:none"
         transform="matrix(1.3333333,0,0,-1.3333333,655.55472,268.10412)"
         clip-path="url(#clipPath35)" />
      <path
         id="path36"
         d="M 0,0 H 4.091 C 4.405,0 4.725,0.045 5.053,0.134 5.38,0.223 5.682,0.369 5.958,0.57 6.233,0.771 6.457,1.04 6.629,1.375 6.799,1.71 6.886,2.131 6.886,2.638 6.886,3.159 6.811,3.591 6.663,3.934 6.513,4.277 6.312,4.549 6.058,4.75 5.805,4.951 5.515,5.089 5.187,5.164 4.859,5.238 4.508,5.275 4.136,5.275 H 0 Z M -2.795,7.556 H 4.248 C 5.38,7.556 6.304,7.392 7.02,7.064 7.736,6.736 8.286,6.327 8.675,5.835 9.061,5.343 9.326,4.806 9.468,4.225 9.609,3.644 9.68,3.107 9.68,2.615 9.68,2.123 9.609,1.59 9.468,1.017 9.326,0.443 9.061,-0.09 8.675,-0.582 8.286,-1.074 7.736,-1.48 7.02,-1.8 6.304,-2.12 5.38,-2.281 4.248,-2.281 H 0 v -6.125 h -2.795 z"
         style="fill:#000000;fill-opacity:1;fill-rule:nonzero;stroke:none"
         transform="matrix(1.3333333,0,0,-1.3333333,685.36326,259.93612)"
         clip-path="url(#clipPath37)" />
      <path
         id="path38"
         d="m 0,0 c -0.849,0 -1.583,-0.172 -2.201,-0.514 -0.619,-0.343 -1.122,-0.802 -1.51,-1.375 -0.387,-0.574 -0.674,-1.226 -0.861,-1.956 -0.186,-0.731 -0.279,-1.476 -0.279,-2.236 0,-0.76 0.093,-1.506 0.279,-2.235 0.187,-0.732 0.474,-1.384 0.861,-1.957 0.388,-0.574 0.891,-1.032 1.51,-1.375 0.618,-0.343 1.352,-0.514 2.201,-0.514 0.85,0 1.583,0.171 2.202,0.514 0.618,0.343 1.122,0.801 1.51,1.375 0.387,0.573 0.673,1.225 0.861,1.957 0.185,0.729 0.279,1.475 0.279,2.235 0,0.76 -0.094,1.505 -0.279,2.236 -0.188,0.73 -0.474,1.382 -0.861,1.956 C 3.324,-1.316 2.82,-0.857 2.202,-0.514 1.583,-0.172 0.85,0 0,0 m 0,2.281 c 1.193,0 2.262,-0.225 3.209,-0.672 0.946,-0.447 1.746,-1.05 2.402,-1.81 0.656,-0.76 1.159,-1.648 1.51,-2.661 0.35,-1.013 0.525,-2.086 0.525,-3.219 0,-1.148 -0.175,-2.229 -0.525,-3.242 -0.351,-1.013 -0.854,-1.9 -1.51,-2.66 -0.656,-0.76 -1.456,-1.361 -2.402,-1.8 -0.947,-0.439 -2.016,-0.659 -3.209,-0.659 -1.192,0 -2.262,0.22 -3.208,0.659 -0.947,0.439 -1.747,1.04 -2.403,1.8 -0.656,0.76 -1.159,1.647 -1.51,2.66 -0.349,1.013 -0.525,2.094 -0.525,3.242 0,1.133 0.176,2.206 0.525,3.219 0.351,1.013 0.854,1.901 1.51,2.661 0.656,0.76 1.456,1.363 2.403,1.81 0.946,0.447 2.016,0.672 3.208,0.672"
         style="fill:#000000;fill-opacity:1;fill-rule:nonzero;stroke:none"
         transform="matrix(1.3333333,0,0,-1.3333333,710.57979,252.39478)"
         clip-path="url(#clipPath39)" />
      <path
         id="path40"
         d="M 0,0 H 2.84 L 5.724,-12.207 H 5.768 L 8.988,0 h 2.861 l 3.13,-12.207 h 0.045 L 17.998,0 h 2.838 l -4.403,-15.962 h -2.84 L 10.396,-3.756 H 10.351 L 7.087,-15.962 H 4.204 Z"
         style="fill:#000000;fill-opacity:1;fill-rule:nonzero;stroke:none"
         transform="matrix(1.3333333,0,0,-1.3333333,722.08606,249.86158)"
         clip-path="url(#clipPath41)" />
      <path
         id="path42"
         d="M 0,0 H 11.491 V -2.414 H 2.795 v -4.181 h 8.048 v -2.28 H 2.795 v -4.673 h 8.853 v -2.414 H 0 Z"
         style="fill:#000000;fill-opacity:1;fill-rule:nonzero;stroke:none"
         transform="matrix(1.3333333,0,0,-1.3333333,752.31112,249.86158)"
         clip-path="url(#clipPath43)" />
      <path
         id="path44"
         d="M 0,0 H 4.583 C 5.478,0 6.155,0.213 6.618,0.637 7.08,1.062 7.311,1.7 7.311,2.549 7.311,3.056 7.236,3.469 7.087,3.79 6.938,4.11 6.733,4.36 6.472,4.539 6.212,4.717 5.913,4.837 5.578,4.897 5.242,4.956 4.896,4.986 4.538,4.986 H 0 Z m -2.795,7.266 h 7.624 c 1.759,0 3.077,-0.38 3.957,-1.14 0.88,-0.76 1.319,-1.819 1.319,-3.175 C 10.105,2.192 9.994,1.562 9.77,1.062 9.546,0.563 9.285,0.16 8.987,-0.145 8.689,-0.451 8.395,-0.671 8.105,-0.804 7.814,-0.938 7.601,-1.028 7.467,-1.073 v -0.045 c 0.238,-0.029 0.495,-0.104 0.771,-0.223 0.276,-0.119 0.533,-0.31 0.772,-0.57 0.238,-0.261 0.436,-0.6 0.592,-1.018 0.156,-0.416 0.234,-0.938 0.234,-1.564 0,-0.939 0.072,-1.793 0.213,-2.56 0.142,-0.768 0.361,-1.315 0.66,-1.643 H 7.713 c -0.209,0.342 -0.332,0.722 -0.369,1.14 -0.037,0.417 -0.056,0.819 -0.056,1.208 0,0.729 -0.044,1.359 -0.134,1.889 -0.089,0.528 -0.253,0.968 -0.491,1.319 -0.239,0.349 -0.564,0.607 -0.974,0.771 -0.41,0.164 -0.935,0.246 -1.575,0.246 H 0 v -6.573 h -2.795 z"
         style="fill:#000000;fill-opacity:1;fill-rule:nonzero;stroke:none"
         transform="matrix(1.3333333,0,0,-1.3333333,774.81632,259.54972)"
         clip-path="url(#clipPath45)" />
      <path
         id="path46"
         d="M 0,0 C -0.12,0.462 -0.284,0.886 -0.492,1.274 -0.701,1.662 -0.969,1.996 -1.297,2.281 -1.625,2.563 -2.009,2.783 -2.448,2.939 -2.888,3.096 -3.398,3.175 -3.98,3.175 -4.829,3.175 -5.564,3.003 -6.181,2.66 -6.8,2.318 -7.303,1.859 -7.691,1.286 -8.078,0.712 -8.365,0.06 -8.552,-0.671 c -0.186,-0.731 -0.279,-1.476 -0.279,-2.235 0,-0.761 0.093,-1.506 0.279,-2.236 0.187,-0.731 0.474,-1.383 0.861,-1.956 0.388,-0.574 0.891,-1.033 1.51,-1.376 0.617,-0.342 1.352,-0.513 2.201,-0.513 0.627,0 1.177,0.107 1.655,0.324 0.476,0.216 0.886,0.514 1.23,0.894 0.342,0.38 0.61,0.823 0.804,1.33 0.193,0.507 0.32,1.051 0.38,1.632 H 2.816 C 2.757,-5.761 2.552,-6.632 2.201,-7.422 1.851,-8.213 1.378,-8.894 0.782,-9.468 c -0.597,-0.574 -1.296,-1.018 -2.101,-1.33 -0.805,-0.313 -1.692,-0.47 -2.661,-0.47 -1.192,0 -2.262,0.22 -3.208,0.659 -0.947,0.44 -1.747,1.04 -2.403,1.801 -0.656,0.759 -1.159,1.646 -1.51,2.66 -0.349,1.013 -0.525,2.094 -0.525,3.242 0,1.132 0.176,2.205 0.525,3.218 0.351,1.014 0.854,1.901 1.51,2.662 0.656,0.759 1.456,1.362 2.403,1.809 0.946,0.448 2.016,0.672 3.208,0.672 0.894,0 1.737,-0.123 2.526,-0.369 C -0.664,4.84 0.033,4.482 0.636,4.012 1.241,3.543 1.729,2.974 2.101,2.302 2.474,1.631 2.705,0.864 2.794,0 Z"
         style="fill:#000000;fill-opacity:1;fill-rule:nonzero;stroke:none"
         transform="matrix(1.3333333,0,0,-1.3333333,601.60352,288.44852)"
         clip-path="url(#clipPath47)" />
      <path
         id="path48"
         d="m 0,0 c -0.849,0 -1.583,-0.172 -2.201,-0.515 -0.619,-0.342 -1.122,-0.801 -1.51,-1.374 -0.387,-0.574 -0.674,-1.226 -0.861,-1.956 -0.186,-0.732 -0.279,-1.477 -0.279,-2.236 0,-0.761 0.093,-1.506 0.279,-2.235 0.187,-0.732 0.474,-1.384 0.861,-1.957 0.388,-0.574 0.891,-1.033 1.51,-1.375 0.618,-0.343 1.352,-0.514 2.201,-0.514 0.85,0 1.583,0.171 2.202,0.514 0.618,0.342 1.122,0.801 1.51,1.375 0.387,0.573 0.673,1.225 0.861,1.957 0.185,0.729 0.279,1.474 0.279,2.235 0,0.759 -0.094,1.504 -0.279,2.236 -0.188,0.73 -0.474,1.382 -0.861,1.956 C 3.324,-1.316 2.82,-0.857 2.202,-0.515 1.583,-0.172 0.85,0 0,0 m 0,2.28 c 1.193,0 2.262,-0.224 3.209,-0.671 0.946,-0.447 1.746,-1.051 2.402,-1.81 0.656,-0.761 1.159,-1.648 1.51,-2.661 0.35,-1.014 0.525,-2.086 0.525,-3.219 0,-1.148 -0.175,-2.229 -0.525,-3.242 -0.351,-1.013 -0.854,-1.901 -1.51,-2.66 -0.656,-0.761 -1.456,-1.361 -2.402,-1.8 -0.947,-0.44 -2.016,-0.659 -3.209,-0.659 -1.192,0 -2.262,0.219 -3.208,0.659 -0.947,0.439 -1.747,1.039 -2.403,1.8 -0.656,0.759 -1.159,1.647 -1.51,2.66 -0.349,1.013 -0.525,2.094 -0.525,3.242 0,1.133 0.176,2.205 0.525,3.219 0.351,1.013 0.854,1.9 1.51,2.661 0.656,0.759 1.456,1.363 2.403,1.81 C -2.262,2.056 -1.192,2.28 0,2.28"
         style="fill:#000000;fill-opacity:1;fill-rule:nonzero;stroke:none"
         transform="matrix(1.3333333,0,0,-1.3333333,617.81792,284.21545)"
         clip-path="url(#clipPath49)" />
      <path
         id="path50"
         d="M 0,0 H 3.934 L 8.339,-12.497 H 8.383 L 12.675,0 h 3.89 v -15.962 h -2.66 V -3.644 H 13.86 L 9.434,-15.962 H 7.131 L 2.705,-3.644 H 2.66 V -15.962 H 0 Z"
         style="fill:#000000;fill-opacity:1;fill-rule:nonzero;stroke:none"
         transform="matrix(1.3333333,0,0,-1.3333333,631.35232,281.68265)"
         clip-path="url(#clipPath51)" />
      <path
         id="path52"
         d="M 0,0 H 4.091 C 4.405,0 4.725,0.045 5.053,0.134 5.38,0.223 5.682,0.369 5.958,0.57 6.233,0.771 6.457,1.04 6.629,1.375 6.799,1.71 6.886,2.131 6.886,2.638 6.886,3.159 6.811,3.592 6.663,3.934 6.513,4.277 6.312,4.549 6.058,4.75 5.805,4.951 5.515,5.089 5.187,5.164 4.859,5.238 4.508,5.275 4.136,5.275 H 0 Z M -2.795,7.556 H 4.248 C 5.38,7.556 6.304,7.392 7.02,7.064 7.736,6.736 8.286,6.327 8.675,5.835 9.061,5.343 9.326,4.806 9.468,4.225 9.609,3.644 9.68,3.107 9.68,2.615 9.68,2.123 9.609,1.59 9.468,1.017 9.326,0.443 9.061,-0.09 8.675,-0.582 8.286,-1.074 7.736,-1.48 7.02,-1.8 6.304,-2.12 5.38,-2.281 4.248,-2.281 H 0 v -6.125 h -2.795 z"
         style="fill:#000000;fill-opacity:1;fill-rule:nonzero;stroke:none"
         transform="matrix(1.3333333,0,0,-1.3333333,661.63592,291.75718)"
         clip-path="url(#clipPath53)" />
      <path
         id="path54"
         d="M 0,0 H 4.873 L 2.482,6.863 H 2.414 Z M 0.984,9.613 H 3.957 L 10.105,-6.349 H 7.109 L 5.611,-2.124 H -0.76 l -1.498,-4.225 h -2.884 z"
         style="fill:#000000;fill-opacity:1;fill-rule:nonzero;stroke:none"
         transform="matrix(1.3333333,0,0,-1.3333333,679.96806,294.49958)"
         clip-path="url(#clipPath55)" />
      <path
         id="path56"
         d="m 0,0 h 2.951 l 7.289,-11.76 h 0.044 V 0 h 2.661 V -15.962 H 9.994 L 2.728,-4.225 H 2.66 V -15.962 H 0 Z"
         style="fill:#000000;fill-opacity:1;fill-rule:nonzero;stroke:none"
         transform="matrix(1.3333333,0,0,-1.3333333,695.31952,281.68265)"
         clip-path="url(#clipPath57)" />
      <path
         id="path58"
         d="M 0,0 -5.991,9.703 H -2.75 L 1.475,2.549 5.634,9.703 H 8.763 L 2.795,0 V -6.26 H 0 Z"
         style="fill:#000000;fill-opacity:1;fill-rule:nonzero;stroke:none"
         transform="matrix(1.3333333,0,0,-1.3333333,722.53392,294.61945)"
         clip-path="url(#clipPath59)" />
      <path
         id="path60"
         d="m 549.31,3016.948 h 1.384 v 73.235 h -1.384 z"
         style="fill:#000000;fill-opacity:1;fill-rule:evenodd;stroke:none"
         transform="matrix(1.3333333,0,0,-1.3333333,-170.05341,4370.2161)"
         clip-path="url(#clipPath61)" />
      <path
         id="path62"
         d="M 0,0 V -4.404 H 5.394 V 0 H 6.756 V -10.241 H 5.394 v 4.69 H 0 v -4.69 H -1.363 V 0 Z"
         style="fill:#000000;fill-opacity:1;fill-rule:nonzero;stroke:none"
         transform="matrix(1.3333333,0,0,-1.3333333,589.33699,313.36945)"
         clip-path="url(#clipPath63)" />
      <path
         id="path64"
         d="m 0,0 c -0.143,-0.363 -0.284,-0.669 -0.423,-0.918 -0.138,-0.249 -0.292,-0.452 -0.459,-0.61 -0.167,-0.157 -0.354,-0.272 -0.56,-0.343 -0.205,-0.073 -0.442,-0.109 -0.71,-0.109 -0.143,0 -0.287,0.01 -0.43,0.03 -0.144,0.019 -0.282,0.052 -0.416,0.1 v 1.119 c 0.105,-0.048 0.227,-0.089 0.366,-0.122 0.139,-0.033 0.256,-0.051 0.352,-0.051 0.249,0 0.456,0.06 0.623,0.18 0.167,0.12 0.294,0.29 0.38,0.509 l 0.503,1.248 -2.94,7.373 h 1.376 l 2.166,-6.068 h 0.029 l 2.08,6.068 h 1.29 z"
         style="fill:#000000;fill-opacity:1;fill-rule:nonzero;stroke:none"
         transform="matrix(1.3333333,0,0,-1.3333333,604.94219,328.34465)"
         clip-path="url(#clipPath65)" />
      <path
         id="path66"
         d="m 0,0 c 0.091,-0.33 0.229,-0.624 0.416,-0.882 0.186,-0.258 0.425,-0.464 0.717,-0.617 0.291,-0.153 0.634,-0.229 1.025,-0.229 0.411,0 0.761,0.081 1.048,0.243 0.287,0.163 0.521,0.376 0.703,0.639 0.181,0.263 0.313,0.562 0.394,0.897 0.081,0.334 0.122,0.673 0.122,1.018 0,0.363 -0.043,0.714 -0.129,1.054 C 4.209,2.462 4.074,2.762 3.887,3.02 3.701,3.278 3.459,3.486 3.163,3.643 2.866,3.801 2.508,3.88 2.087,3.88 1.676,3.88 1.327,3.798 1.04,3.636 0.753,3.473 0.523,3.259 0.351,2.991 0.18,2.723 0.055,2.417 -0.021,2.073 -0.099,1.729 -0.137,1.375 -0.137,1.011 -0.137,0.667 -0.091,0.33 0,0 m 4.382,-2.632 v 1.005 H 4.353 C 4.153,-2.039 3.837,-2.335 3.407,-2.517 2.977,-2.698 2.503,-2.79 1.987,-2.79 c -0.574,0 -1.074,0.105 -1.499,0.316 -0.426,0.21 -0.78,0.492 -1.062,0.847 -0.282,0.353 -0.495,0.764 -0.638,1.232 -0.144,0.469 -0.215,0.966 -0.215,1.492 0,0.527 0.069,1.023 0.208,1.492 0.138,0.469 0.348,0.878 0.631,1.227 0.281,0.349 0.636,0.626 1.061,0.832 0.426,0.205 0.921,0.308 1.485,0.308 0.191,0 0.397,-0.019 0.616,-0.057 C 2.795,4.861 3.015,4.796 3.234,4.705 3.455,4.614 3.663,4.494 3.858,4.346 4.054,4.198 4.219,4.014 4.353,3.794 H 4.382 V 7.61 h 1.22 V -2.632 Z"
         style="fill:#000000;fill-opacity:1;fill-rule:nonzero;stroke:none"
         transform="matrix(1.3333333,0,0,-1.3333333,611.99059,323.51558)"
         clip-path="url(#clipPath67)" />
      <path
         id="path68"
         d="m 0,0 v -1.564 h 0.028 c 0.297,0.602 0.66,1.048 1.091,1.334 0.43,0.287 0.975,0.42 1.635,0.402 V -1.12 C 2.266,-1.12 1.85,-1.186 1.506,-1.32 1.162,-1.455 0.884,-1.65 0.674,-1.908 0.464,-2.166 0.31,-2.479 0.215,-2.848 0.119,-3.216 0.071,-3.639 0.071,-4.118 V -7.416 H -1.148 V 0 Z"
         style="fill:#000000;fill-opacity:1;fill-rule:nonzero;stroke:none"
         transform="matrix(1.3333333,0,0,-1.3333333,623.43712,317.13638)"
         clip-path="url(#clipPath69)" />
      <path
         id="path70"
         d="m 0,0 c -0.153,-0.114 -0.353,-0.197 -0.602,-0.25 -0.249,-0.052 -0.509,-0.094 -0.782,-0.128 -0.273,-0.034 -0.548,-0.072 -0.825,-0.114 -0.277,-0.043 -0.525,-0.112 -0.746,-0.207 -0.22,-0.096 -0.399,-0.231 -0.538,-0.407 -0.139,-0.177 -0.208,-0.417 -0.208,-0.72 0,-0.201 0.041,-0.37 0.122,-0.508 0.081,-0.138 0.187,-0.25 0.316,-0.335 0.129,-0.086 0.28,-0.147 0.451,-0.185 0.173,-0.039 0.355,-0.058 0.546,-0.058 0.401,0 0.746,0.055 1.033,0.164 0.287,0.109 0.52,0.248 0.703,0.414 0.181,0.167 0.315,0.347 0.401,0.543 C -0.043,-1.596 0,-1.413 0,-1.242 Z M 1.98,-3.801 C 1.769,-3.925 1.478,-3.988 1.105,-3.988 c -0.316,0 -0.567,0.089 -0.754,0.266 -0.186,0.176 -0.279,0.466 -0.279,0.868 -0.335,-0.402 -0.724,-0.692 -1.169,-0.868 -0.444,-0.177 -0.925,-0.266 -1.441,-0.266 -0.335,0 -0.653,0.039 -0.955,0.115 -0.301,0.077 -0.561,0.196 -0.781,0.359 -0.221,0.163 -0.394,0.376 -0.524,0.638 -0.129,0.263 -0.193,0.581 -0.193,0.954 0,0.421 0.071,0.765 0.214,1.033 0.144,0.267 0.333,0.485 0.568,0.653 0.234,0.167 0.501,0.294 0.803,0.38 0.301,0.085 0.609,0.158 0.924,0.214 0.335,0.068 0.654,0.118 0.954,0.152 0.302,0.033 0.567,0.081 0.797,0.143 0.229,0.062 0.411,0.152 0.545,0.273 0.133,0.119 0.201,0.293 0.201,0.523 0,0.267 -0.05,0.483 -0.151,0.645 -0.1,0.163 -0.229,0.287 -0.387,0.373 -0.158,0.087 -0.335,0.143 -0.531,0.173 -0.197,0.028 -0.39,0.043 -0.581,0.043 -0.517,0 -0.947,-0.099 -1.291,-0.294 C -3.27,2.193 -3.457,1.822 -3.485,1.277 h -1.219 c 0.018,0.459 0.114,0.846 0.287,1.162 0.171,0.315 0.401,0.571 0.688,0.767 0.287,0.196 0.614,0.337 0.982,0.424 0.368,0.086 0.763,0.129 1.184,0.129 0.334,0 0.667,-0.025 0.997,-0.073 C -0.236,3.638 0.062,3.541 0.33,3.393 0.597,3.245 0.813,3.038 0.975,2.771 1.138,2.503 1.219,2.156 1.219,1.726 v -3.807 c 0,-0.287 0.017,-0.497 0.051,-0.63 0.033,-0.134 0.146,-0.201 0.337,-0.201 0.105,0 0.229,0.019 0.373,0.058 z"
         style="fill:#000000;fill-opacity:1;fill-rule:nonzero;stroke:none"
         transform="matrix(1.3333333,0,0,-1.3333333,634.45272,321.91865)"
         clip-path="url(#clipPath71)" />
      <path
         id="path72"
         d="M 0,0 V 1.176 H -0.029 C -0.287,0.718 -0.617,0.38 -1.019,0.165 -1.42,-0.05 -1.894,-0.158 -2.439,-0.158 c -0.488,0 -0.894,0.064 -1.219,0.194 -0.325,0.129 -0.589,0.312 -0.789,0.552 -0.201,0.239 -0.342,0.524 -0.423,0.854 -0.081,0.33 -0.122,0.695 -0.122,1.097 v 4.877 h 1.219 v -5.02 c 0,-0.459 0.134,-0.823 0.402,-1.091 0.268,-0.267 0.636,-0.401 1.104,-0.401 0.373,0 0.696,0.056 0.969,0.172 0.272,0.115 0.499,0.277 0.681,0.488 0.182,0.21 0.317,0.456 0.409,0.738 0.091,0.282 0.136,0.591 0.136,0.925 V 7.416 H 1.147 V 0 Z"
         style="fill:#000000;fill-opacity:1;fill-rule:nonzero;stroke:none"
         transform="matrix(1.3333333,0,0,-1.3333333,645.25886,327.02465)"
         clip-path="url(#clipPath73)" />
      <path
         id="path74"
         d="m 615.759,3032.394 h -1.219 v 10.241 h 1.219 z"
         style="fill:#000000;fill-opacity:1;fill-rule:nonzero;stroke:none"
         transform="matrix(1.3333333,0,0,-1.3333333,-170.05341,4370.2161)"
         clip-path="url(#clipPath75)" />
      <path
         id="path76"
         d="m 618.943,3032.394 h -1.219 v 7.416 h 1.219 z m -1.22,10.241 h 1.219 v -1.492 h -1.219 z"
         style="fill:#000000;fill-opacity:1;fill-rule:nonzero;stroke:none"
         transform="matrix(1.3333333,0,0,-1.3333333,-170.05341,4370.2161)"
         clip-path="url(#clipPath77)" />
      <path
         id="path78"
         d="m 0,0 c -0.307,0.259 -0.718,0.387 -1.234,0.387 -0.44,0 -0.808,-0.082 -1.104,-0.243 -0.297,-0.164 -0.534,-0.378 -0.711,-0.646 -0.176,-0.268 -0.303,-0.576 -0.38,-0.925 -0.077,-0.35 -0.115,-0.71 -0.115,-1.083 0,-0.344 0.041,-0.679 0.122,-1.004 0.081,-0.326 0.208,-0.614 0.381,-0.868 0.172,-0.253 0.396,-0.457 0.674,-0.609 0.277,-0.154 0.607,-0.23 0.99,-0.23 0.602,0 1.073,0.157 1.412,0.474 0.34,0.315 0.548,0.759 0.625,1.333 H 1.908 C 1.774,-4.332 1.431,-5.039 0.882,-5.537 c -0.55,-0.497 -1.298,-0.746 -2.245,-0.746 -0.564,0 -1.064,0.092 -1.499,0.273 -0.436,0.182 -0.799,0.44 -1.09,0.774 -0.292,0.335 -0.512,0.735 -0.66,1.198 -0.148,0.464 -0.222,0.974 -0.222,1.528 0,0.555 0.071,1.073 0.214,1.556 0.144,0.484 0.362,0.904 0.654,1.262 0.292,0.359 0.657,0.641 1.097,0.847 0.439,0.205 0.952,0.308 1.534,0.308 0.421,0 0.816,-0.05 1.184,-0.15 C 0.217,1.212 0.542,1.056 0.825,0.846 1.106,0.635 1.338,0.371 1.52,0.051 1.702,-0.271 1.817,-0.65 1.865,-1.091 H 0.602 C 0.507,-0.622 0.306,-0.258 0,0"
         style="fill:#000000;fill-opacity:1;fill-rule:nonzero;stroke:none"
         transform="matrix(1.3333333,0,0,-1.3333333,663.63779,318.85838)"
         clip-path="url(#clipPath79)" />
      <path
         id="path80"
         d="m 0,0 c 0.115,-0.186 0.266,-0.335 0.452,-0.444 0.186,-0.11 0.397,-0.19 0.632,-0.237 0.234,-0.048 0.475,-0.072 0.724,-0.072 0.191,0 0.391,0.014 0.602,0.043 0.21,0.029 0.404,0.081 0.581,0.158 0.177,0.077 0.323,0.189 0.437,0.337 0.116,0.148 0.173,0.337 0.173,0.567 0,0.315 -0.12,0.554 -0.359,0.717 C 3.003,1.231 2.704,1.363 2.346,1.463 1.987,1.564 1.597,1.655 1.176,1.736 0.756,1.817 0.366,1.932 0.008,2.08 -0.351,2.228 -0.65,2.436 -0.889,2.704 c -0.24,0.268 -0.359,0.641 -0.359,1.119 0,0.373 0.084,0.693 0.251,0.96 0.168,0.268 0.383,0.486 0.646,0.654 0.263,0.167 0.56,0.292 0.889,0.373 0.33,0.081 0.658,0.122 0.983,0.122 0.421,0 0.808,-0.036 1.162,-0.108 C 3.036,5.752 3.349,5.628 3.623,5.451 3.895,5.274 4.112,5.034 4.275,4.734 4.438,4.432 4.534,4.057 4.562,3.607 H 3.343 C 3.323,3.846 3.262,4.046 3.156,4.203 3.051,4.361 2.917,4.488 2.755,4.583 2.592,4.678 2.412,4.748 2.217,4.791 2.021,4.834 1.823,4.856 1.621,4.856 1.44,4.856 1.255,4.841 1.069,4.813 0.883,4.783 0.713,4.734 0.559,4.662 0.407,4.59 0.282,4.495 0.186,4.375 0.091,4.255 0.044,4.1 0.044,3.909 0.044,3.698 0.117,3.524 0.266,3.385 0.414,3.247 0.603,3.132 0.833,3.041 1.062,2.95 1.32,2.874 1.607,2.812 1.894,2.749 2.181,2.685 2.468,2.618 2.773,2.551 3.072,2.47 3.364,2.374 3.656,2.279 3.914,2.152 4.139,1.993 4.364,1.836 4.545,1.637 4.684,1.399 4.823,1.16 4.892,0.863 4.892,0.51 4.892,0.06 4.798,-0.313 4.612,-0.609 4.425,-0.906 4.182,-1.145 3.88,-1.327 3.579,-1.508 3.24,-1.635 2.862,-1.706 2.484,-1.779 2.109,-1.815 1.736,-1.815 c -0.411,0 -0.803,0.043 -1.177,0.13 -0.373,0.086 -0.702,0.227 -0.989,0.423 -0.287,0.196 -0.516,0.454 -0.689,0.775 -0.172,0.32 -0.267,0.71 -0.287,1.168 h 1.22 C -0.177,0.414 -0.114,0.187 0,0"
         style="fill:#000000;fill-opacity:1;fill-rule:nonzero;stroke:none"
         transform="matrix(1.3333333,0,0,-1.3333333,669.24006,324.81612)"
         clip-path="url(#clipPath81)" />
      <path
         id="path82"
         d="m 0,0 v -1.449 c 0,-0.544 -0.125,-1.013 -0.374,-1.405 -0.248,-0.393 -0.65,-0.67 -1.205,-0.832 v 0.717 c 0.163,0.057 0.299,0.141 0.41,0.251 0.11,0.11 0.198,0.23 0.265,0.359 0.066,0.129 0.112,0.26 0.136,0.394 0.024,0.134 0.031,0.258 0.021,0.373 H -1.592 V 0 Z"
         style="fill:#000000;fill-opacity:1;fill-rule:nonzero;stroke:none"
         transform="matrix(1.3333333,0,0,-1.3333333,680.04739,324.90198)"
         clip-path="url(#clipPath83)" />
      <path
         id="path84"
         d="M 0,0 C 0.774,-0.01 1.341,0.148 1.7,0.473 2.058,0.799 2.237,1.267 2.237,1.879 2.237,2.491 2.058,2.957 1.7,3.277 1.341,3.597 0.774,3.759 0,3.759 H -2.668 V 0 Z M 0.459,4.906 C 1.492,4.906 2.274,4.64 2.805,4.11 3.335,3.579 3.6,2.835 3.6,1.879 3.6,0.923 3.335,0.177 2.805,-0.358 2.274,-0.894 1.492,-1.157 0.459,-1.148 H -2.668 V -5.336 H -4.031 V 4.906 Z"
         style="fill:#000000;fill-opacity:1;fill-rule:nonzero;stroke:none"
         transform="matrix(1.3333333,0,0,-1.3333333,693.83686,319.91012)"
         clip-path="url(#clipPath85)" />
      <path
         id="path86"
         d="m 0,0 v -1.176 h 0.028 c 0.507,0.898 1.31,1.348 2.411,1.348 0.487,0 0.894,-0.068 1.219,-0.201 0.325,-0.134 0.588,-0.32 0.789,-0.56 0.201,-0.239 0.341,-0.523 0.422,-0.853 0.081,-0.33 0.122,-0.696 0.122,-1.097 V -7.416 H 3.772 v 5.02 c 0,0.459 -0.134,0.822 -0.401,1.09 -0.269,0.268 -0.637,0.402 -1.105,0.402 -0.373,0 -0.695,-0.058 -0.968,-0.173 C 1.025,-1.191 0.799,-1.354 0.617,-1.564 0.434,-1.775 0.299,-2.021 0.208,-2.303 0.117,-2.585 0.071,-2.894 0.071,-3.228 V -7.416 H -1.148 V 0 Z"
         style="fill:#000000;fill-opacity:1;fill-rule:nonzero;stroke:none"
         transform="matrix(1.3333333,0,0,-1.3333333,702.11779,317.13638)"
         clip-path="url(#clipPath87)" />
      <path
         id="path88"
         d="m 0,0 c -0.11,0.259 -0.259,0.48 -0.445,0.667 -0.187,0.186 -0.406,0.335 -0.659,0.445 -0.254,0.109 -0.534,0.165 -0.84,0.165 -0.315,0 -0.6,-0.056 -0.853,-0.165 C -3.051,1.002 -3.268,0.851 -3.45,0.66 -3.632,0.469 -3.775,0.246 -3.88,-0.007 -3.986,-0.26 -4.047,-0.531 -4.067,-0.817 h 4.26 C 0.175,-0.531 0.109,-0.258 0,0 m 0.294,-4.762 c -0.555,-0.421 -1.253,-0.632 -2.094,-0.632 -0.594,0 -1.107,0.096 -1.543,0.287 -0.434,0.192 -0.8,0.459 -1.097,0.804 -0.296,0.345 -0.518,0.755 -0.667,1.234 -0.148,0.477 -0.232,0.998 -0.251,1.563 0,0.564 0.086,1.08 0.258,1.549 0.173,0.468 0.414,0.875 0.725,1.219 0.311,0.345 0.679,0.612 1.105,0.804 0.425,0.191 0.891,0.287 1.398,0.287 0.66,0 1.207,-0.137 1.643,-0.409 0.434,-0.273 0.784,-0.619 1.046,-1.04 0.264,-0.421 0.445,-0.881 0.546,-1.377 0.1,-0.497 0.14,-0.971 0.122,-1.42 h -5.552 c -0.009,-0.326 0.029,-0.633 0.115,-0.925 0.086,-0.292 0.225,-0.551 0.416,-0.776 0.191,-0.224 0.436,-0.404 0.731,-0.537 0.297,-0.134 0.647,-0.201 1.048,-0.201 0.516,0 0.939,0.12 1.269,0.359 0.33,0.239 0.548,0.602 0.653,1.09 H 1.37 C 1.208,-3.714 0.848,-4.341 0.294,-4.762"
         style="fill:#000000;fill-opacity:1;fill-rule:nonzero;stroke:none"
         transform="matrix(1.3333333,0,0,-1.3333333,717.82846,320.04425)"
         clip-path="url(#clipPath89)" />
      <path
         id="path90"
         d="M 0,0 V 1.176 H -0.029 C -0.287,0.718 -0.617,0.38 -1.019,0.165 -1.42,-0.05 -1.894,-0.158 -2.439,-0.158 c -0.488,0 -0.894,0.064 -1.219,0.194 -0.325,0.129 -0.589,0.312 -0.789,0.552 -0.201,0.239 -0.342,0.524 -0.423,0.854 -0.081,0.33 -0.122,0.695 -0.122,1.097 v 4.877 h 1.219 v -5.02 c 0,-0.459 0.134,-0.823 0.402,-1.091 0.268,-0.267 0.636,-0.401 1.104,-0.401 0.373,0 0.696,0.056 0.969,0.172 0.272,0.115 0.499,0.277 0.681,0.488 0.182,0.21 0.317,0.456 0.409,0.738 0.091,0.282 0.136,0.591 0.136,0.925 V 7.416 H 1.147 V 0 Z"
         style="fill:#000000;fill-opacity:1;fill-rule:nonzero;stroke:none"
         transform="matrix(1.3333333,0,0,-1.3333333,728.14779,327.02465)"
         clip-path="url(#clipPath91)" />
      <path
         id="path92"
         d="m 0,0 v -1.09 h 0.028 c 0.555,0.841 1.353,1.262 2.396,1.262 0.459,0 0.875,-0.096 1.248,-0.287 0.372,-0.192 0.636,-0.517 0.789,-0.975 0.248,0.401 0.576,0.711 0.982,0.932 0.406,0.22 0.854,0.33 1.342,0.33 0.373,0 0.709,-0.041 1.011,-0.122 0.301,-0.081 0.559,-0.208 0.774,-0.38 0.216,-0.173 0.383,-0.395 0.502,-0.668 0.12,-0.272 0.18,-0.6 0.18,-0.982 v -5.436 h -1.22 v 4.862 c 0,0.23 -0.019,0.445 -0.057,0.646 -0.038,0.2 -0.11,0.375 -0.215,0.524 -0.105,0.147 -0.251,0.264 -0.437,0.351 -0.187,0.086 -0.429,0.129 -0.725,0.129 -0.602,0 -1.076,-0.173 -1.42,-0.516 C 4.834,-1.765 4.661,-2.224 4.661,-2.798 V -7.416 H 3.442 v 4.862 c 0,0.239 -0.021,0.459 -0.064,0.66 C 3.335,-1.693 3.261,-1.519 3.155,-1.371 3.051,-1.222 2.909,-1.107 2.732,-1.026 2.556,-0.945 2.328,-0.904 2.051,-0.904 1.698,-0.904 1.393,-0.976 1.14,-1.12 0.886,-1.263 0.681,-1.435 0.523,-1.636 0.366,-1.836 0.251,-2.044 0.18,-2.26 0.107,-2.475 0.071,-2.654 0.071,-2.798 V -7.416 H -1.148 V 0 Z"
         style="fill:#000000;fill-opacity:1;fill-rule:nonzero;stroke:none"
         transform="matrix(1.3333333,0,0,-1.3333333,733.65499,317.13638)"
         clip-path="url(#clipPath93)" />
      <path
         id="path94"
         d="m 0,0 c -0.153,-0.114 -0.353,-0.197 -0.602,-0.25 -0.249,-0.052 -0.509,-0.094 -0.782,-0.128 -0.273,-0.034 -0.548,-0.072 -0.825,-0.114 -0.277,-0.043 -0.525,-0.112 -0.746,-0.207 -0.22,-0.096 -0.399,-0.231 -0.538,-0.407 -0.139,-0.177 -0.208,-0.417 -0.208,-0.72 0,-0.201 0.041,-0.37 0.122,-0.508 0.081,-0.138 0.187,-0.25 0.316,-0.335 0.129,-0.086 0.28,-0.147 0.451,-0.185 0.173,-0.039 0.355,-0.058 0.546,-0.058 0.401,0 0.746,0.055 1.033,0.164 0.287,0.109 0.52,0.248 0.703,0.414 0.181,0.167 0.315,0.347 0.401,0.543 C -0.043,-1.596 0,-1.413 0,-1.242 Z M 1.98,-3.801 C 1.769,-3.925 1.478,-3.988 1.105,-3.988 c -0.316,0 -0.567,0.089 -0.754,0.266 -0.186,0.176 -0.279,0.466 -0.279,0.868 -0.335,-0.402 -0.724,-0.692 -1.169,-0.868 -0.444,-0.177 -0.925,-0.266 -1.441,-0.266 -0.335,0 -0.653,0.039 -0.955,0.115 -0.301,0.077 -0.561,0.196 -0.781,0.359 -0.221,0.163 -0.394,0.376 -0.524,0.638 -0.129,0.263 -0.193,0.581 -0.193,0.954 0,0.421 0.071,0.765 0.214,1.033 0.144,0.267 0.333,0.485 0.568,0.653 0.234,0.167 0.501,0.294 0.803,0.38 0.301,0.085 0.609,0.158 0.924,0.214 0.335,0.068 0.654,0.118 0.954,0.152 0.302,0.033 0.567,0.081 0.797,0.143 0.229,0.062 0.411,0.152 0.545,0.273 0.133,0.119 0.201,0.293 0.201,0.523 0,0.267 -0.05,0.483 -0.151,0.645 -0.1,0.163 -0.229,0.287 -0.387,0.373 -0.158,0.087 -0.335,0.143 -0.531,0.173 -0.197,0.028 -0.39,0.043 -0.581,0.043 -0.517,0 -0.947,-0.099 -1.291,-0.294 C -3.27,2.193 -3.457,1.822 -3.485,1.277 h -1.219 c 0.018,0.459 0.114,0.846 0.287,1.162 0.171,0.315 0.401,0.571 0.688,0.767 0.287,0.196 0.614,0.337 0.982,0.424 0.368,0.086 0.763,0.129 1.184,0.129 0.334,0 0.667,-0.025 0.997,-0.073 C -0.236,3.638 0.062,3.541 0.33,3.393 0.597,3.245 0.813,3.038 0.975,2.771 1.138,2.503 1.219,2.156 1.219,1.726 v -3.807 c 0,-0.287 0.017,-0.497 0.051,-0.63 0.033,-0.134 0.146,-0.201 0.337,-0.201 0.105,0 0.229,0.019 0.373,0.058 z"
         style="fill:#000000;fill-opacity:1;fill-rule:nonzero;stroke:none"
         transform="matrix(1.3333333,0,0,-1.3333333,754.55912,321.91865)"
         clip-path="url(#clipPath95)" />
      <path
         id="path96"
         d="m 0,0 v -1.077 h -1.478 v -4.604 c 0,-0.143 0.012,-0.258 0.036,-0.344 0.024,-0.086 0.069,-0.153 0.137,-0.2 0.066,-0.049 0.159,-0.079 0.279,-0.094 0.119,-0.015 0.275,-0.022 0.467,-0.022 H 0 v -1.075 h -0.932 c -0.317,0 -0.587,0.021 -0.812,0.064 -0.224,0.043 -0.406,0.122 -0.544,0.237 -0.139,0.115 -0.241,0.278 -0.309,0.488 -0.067,0.209 -0.1,0.488 -0.1,0.831 v 4.719 H -3.96 V 0 h 1.263 v 2.223 h 1.219 V 0 Z"
         style="fill:#000000;fill-opacity:1;fill-rule:nonzero;stroke:none"
         transform="matrix(1.3333333,0,0,-1.3333333,762.93646,317.13638)"
         clip-path="url(#clipPath97)" />
      <path
         id="path98"
         d="m 702.381,3032.394 h -1.219 v 7.416 h 1.219 z m -1.219,10.241 h 1.219 v -1.492 h -1.219 z"
         style="fill:#000000;fill-opacity:1;fill-rule:nonzero;stroke:none"
         transform="matrix(1.3333333,0,0,-1.3333333,-170.05341,4370.2161)"
         clip-path="url(#clipPath99)" />
      <path
         id="path100"
         d="m 0,0 c -0.307,0.259 -0.718,0.387 -1.234,0.387 -0.44,0 -0.808,-0.082 -1.104,-0.243 -0.297,-0.164 -0.534,-0.378 -0.711,-0.646 -0.176,-0.268 -0.303,-0.576 -0.379,-0.925 -0.078,-0.35 -0.116,-0.71 -0.116,-1.083 0,-0.344 0.041,-0.679 0.122,-1.004 0.081,-0.326 0.208,-0.614 0.381,-0.868 0.172,-0.253 0.396,-0.457 0.674,-0.609 0.277,-0.154 0.607,-0.23 0.99,-0.23 0.602,0 1.073,0.157 1.412,0.474 0.34,0.315 0.548,0.759 0.625,1.333 H 1.908 C 1.774,-4.332 1.431,-5.039 0.882,-5.537 c -0.55,-0.497 -1.298,-0.746 -2.245,-0.746 -0.564,0 -1.064,0.092 -1.499,0.273 -0.436,0.182 -0.799,0.44 -1.09,0.774 -0.292,0.335 -0.512,0.735 -0.66,1.198 -0.148,0.464 -0.222,0.974 -0.222,1.528 0,0.555 0.071,1.073 0.215,1.556 0.143,0.484 0.361,0.904 0.653,1.262 0.292,0.359 0.657,0.641 1.097,0.847 0.439,0.205 0.952,0.308 1.535,0.308 0.42,0 0.815,-0.05 1.183,-0.15 C 0.217,1.212 0.542,1.056 0.825,0.846 1.106,0.635 1.338,0.371 1.52,0.051 1.702,-0.271 1.817,-0.65 1.865,-1.091 H 0.602 C 0.507,-0.622 0.306,-0.258 0,0"
         style="fill:#000000;fill-opacity:1;fill-rule:nonzero;stroke:none"
         transform="matrix(1.3333333,0,0,-1.3333333,774.88926,318.85838)"
         clip-path="url(#clipPath101)" />
      <path
         id="path102"
         d="m 0,0 c 0.115,-0.186 0.266,-0.335 0.452,-0.444 0.186,-0.11 0.397,-0.19 0.632,-0.237 0.234,-0.048 0.475,-0.072 0.724,-0.072 0.191,0 0.391,0.014 0.602,0.043 0.21,0.029 0.404,0.081 0.581,0.158 0.177,0.077 0.323,0.189 0.438,0.337 0.115,0.148 0.172,0.337 0.172,0.567 0,0.315 -0.12,0.554 -0.359,0.717 C 3.003,1.231 2.704,1.363 2.346,1.463 1.987,1.564 1.597,1.655 1.176,1.736 0.756,1.817 0.366,1.932 0.008,2.08 -0.351,2.228 -0.65,2.436 -0.889,2.704 c -0.239,0.268 -0.359,0.641 -0.359,1.119 0,0.373 0.084,0.693 0.251,0.96 0.168,0.268 0.383,0.486 0.646,0.654 0.263,0.167 0.56,0.292 0.889,0.373 0.33,0.081 0.658,0.122 0.983,0.122 0.421,0 0.808,-0.036 1.162,-0.108 C 3.036,5.752 3.349,5.628 3.623,5.451 3.895,5.274 4.112,5.034 4.275,4.734 4.438,4.432 4.534,4.057 4.562,3.607 H 3.343 C 3.323,3.846 3.262,4.046 3.156,4.203 3.051,4.361 2.917,4.488 2.755,4.583 2.592,4.678 2.412,4.748 2.217,4.791 2.021,4.834 1.823,4.856 1.622,4.856 1.44,4.856 1.255,4.841 1.069,4.813 0.883,4.783 0.713,4.734 0.559,4.662 0.407,4.59 0.282,4.495 0.186,4.375 0.091,4.255 0.044,4.1 0.044,3.909 0.044,3.698 0.117,3.524 0.266,3.385 0.414,3.247 0.603,3.132 0.833,3.041 1.062,2.95 1.32,2.874 1.607,2.812 1.894,2.749 2.181,2.685 2.468,2.618 2.773,2.551 3.072,2.47 3.364,2.374 3.656,2.279 3.914,2.152 4.139,1.993 4.364,1.836 4.545,1.637 4.684,1.399 4.823,1.16 4.892,0.863 4.892,0.51 4.892,0.06 4.798,-0.313 4.612,-0.609 4.425,-0.906 4.182,-1.145 3.88,-1.327 3.579,-1.508 3.24,-1.635 2.862,-1.706 2.484,-1.779 2.109,-1.815 1.736,-1.815 c -0.411,0 -0.803,0.043 -1.177,0.13 -0.373,0.086 -0.702,0.227 -0.989,0.423 -0.287,0.196 -0.516,0.454 -0.689,0.775 -0.172,0.32 -0.267,0.71 -0.287,1.168 h 1.22 C -0.177,0.414 -0.114,0.187 0,0"
         style="fill:#000000;fill-opacity:1;fill-rule:nonzero;stroke:none"
         transform="matrix(1.3333333,0,0,-1.3333333,780.49139,324.81612)"
         clip-path="url(#clipPath103)" />
      <path
         id="path104"
         d="m 0,0 c 0.162,0.114 0.31,0.243 0.444,0.387 0.134,0.143 0.244,0.303 0.33,0.481 0.086,0.177 0.13,0.375 0.13,0.594 0,0.297 -0.105,0.553 -0.316,0.769 -0.21,0.215 -0.497,0.322 -0.86,0.322 -0.287,0 -0.556,-0.089 -0.804,-0.266 -0.249,-0.176 -0.373,-0.452 -0.373,-0.825 0,-0.152 0.032,-0.305 0.093,-0.458 0.063,-0.154 0.142,-0.304 0.237,-0.452 0.096,-0.149 0.201,-0.294 0.316,-0.438 0.115,-0.143 0.229,-0.287 0.344,-0.43 C -0.315,-0.22 -0.163,-0.115 0,0 m -1.542,-2.08 c -0.215,-0.144 -0.405,-0.306 -0.567,-0.487 -0.163,-0.183 -0.292,-0.386 -0.387,-0.61 -0.096,-0.225 -0.144,-0.49 -0.144,-0.796 0,-0.259 0.056,-0.495 0.165,-0.711 0.111,-0.215 0.256,-0.396 0.438,-0.545 0.181,-0.148 0.389,-0.265 0.624,-0.351 0.234,-0.086 0.476,-0.129 0.725,-0.129 0.467,0 0.886,0.109 1.254,0.33 0.368,0.22 0.677,0.516 0.926,0.889 l -2.353,2.826 C -1.1,-1.798 -1.327,-1.937 -1.542,-2.08 m 2.453,-4.332 c -0.531,-0.239 -1.079,-0.359 -1.642,-0.359 -0.689,0 -1.244,0.105 -1.665,0.316 -0.42,0.21 -0.745,0.464 -0.975,0.76 -0.229,0.297 -0.38,0.603 -0.452,0.918 -0.071,0.316 -0.107,0.578 -0.107,0.789 0,0.401 0.064,0.756 0.193,1.061 0.129,0.307 0.302,0.581 0.516,0.825 0.216,0.244 0.469,0.464 0.761,0.66 0.292,0.196 0.6,0.38 0.925,0.553 -0.143,0.2 -0.282,0.391 -0.415,0.573 -0.135,0.181 -0.257,0.366 -0.367,0.552 -0.11,0.187 -0.196,0.383 -0.258,0.589 -0.062,0.205 -0.093,0.437 -0.093,0.695 0,0.277 0.05,0.543 0.15,0.797 0.101,0.253 0.249,0.477 0.445,0.673 0.196,0.197 0.438,0.352 0.725,0.467 0.287,0.114 0.617,0.172 0.99,0.172 0.315,0 0.624,-0.043 0.924,-0.129 C 0.868,3.414 1.133,3.282 1.363,3.105 1.592,2.928 1.776,2.708 1.914,2.446 2.053,2.182 2.123,1.879 2.123,1.535 2.123,1.228 2.071,0.944 1.965,0.681 1.86,0.418 1.716,0.177 1.535,-0.043 1.353,-0.263 1.147,-0.462 0.918,-0.638 0.688,-0.816 0.449,-0.975 0.201,-1.119 l 1.85,-2.252 c 0.191,0.535 0.302,1.066 0.33,1.592 H 3.543 C 3.514,-2.085 3.483,-2.346 3.45,-2.561 3.416,-2.776 3.373,-2.974 3.32,-3.156 3.267,-3.338 3.203,-3.517 3.127,-3.694 3.051,-3.871 2.96,-4.074 2.854,-4.303 l 1.994,-2.31 H 3.256 l -1.09,1.277 C 1.86,-5.814 1.442,-6.174 0.911,-6.412"
         style="fill:#000000;fill-opacity:1;fill-rule:nonzero;stroke:none"
         transform="matrix(1.3333333,0,0,-1.3333333,591.89992,338.79292)"
         clip-path="url(#clipPath105)" />
      <path
         id="path106"
         d="m 0,0 v -1.147 h -5.709 v -3.257 h 5.321 v -1.147 h -5.321 v -3.543 h 5.752 v -1.147 H -7.072 V 0 Z"
         style="fill:#000000;fill-opacity:1;fill-rule:nonzero;stroke:none"
         transform="matrix(1.3333333,0,0,-1.3333333,614.31392,333.95478)"
         clip-path="url(#clipPath107)" />
      <path
         id="path108"
         d="m 0,0 v -1.176 h 0.028 c 0.507,0.898 1.31,1.348 2.411,1.348 0.487,0 0.894,-0.068 1.219,-0.201 0.325,-0.134 0.588,-0.32 0.789,-0.56 0.201,-0.239 0.341,-0.523 0.422,-0.853 0.081,-0.33 0.122,-0.696 0.122,-1.097 V -7.416 H 3.772 v 5.02 c 0,0.459 -0.134,0.822 -0.401,1.09 -0.269,0.268 -0.637,0.402 -1.105,0.402 -0.373,0 -0.695,-0.057 -0.968,-0.173 C 1.025,-1.191 0.799,-1.354 0.617,-1.564 0.434,-1.775 0.299,-2.021 0.208,-2.303 0.117,-2.585 0.071,-2.894 0.071,-3.228 V -7.416 H -1.148 V 0 Z"
         style="fill:#000000;fill-opacity:1;fill-rule:nonzero;stroke:none"
         transform="matrix(1.3333333,0,0,-1.3333333,617.83352,337.72172)"
         clip-path="url(#clipPath109)" />
      <path
         id="path110"
         d="M 0,0 C 0.282,0.167 0.51,0.387 0.681,0.66 0.853,0.932 0.98,1.241 1.062,1.585 1.143,1.929 1.183,2.274 1.183,2.618 1.183,2.942 1.145,3.263 1.069,3.579 0.992,3.894 0.87,4.179 0.703,4.432 0.536,4.686 0.318,4.889 0.051,5.042 -0.218,5.195 -0.543,5.271 -0.925,5.271 -1.317,5.271 -1.652,5.198 -1.929,5.049 -2.206,4.901 -2.434,4.702 -2.61,4.454 -2.787,4.205 -2.917,3.918 -2.998,3.594 -3.079,3.268 -3.12,2.929 -3.12,2.574 -3.12,2.24 -3.086,1.906 -3.019,1.571 -2.952,1.236 -2.838,0.932 -2.675,0.66 -2.513,0.387 -2.297,0.167 -2.03,0 c 0.268,-0.168 0.603,-0.251 1.005,-0.251 0.401,0 0.743,0.083 1.025,0.251 m 1.556,-3.335 c -0.554,-0.602 -1.424,-0.904 -2.61,-0.904 -0.344,0 -0.695,0.038 -1.055,0.115 -0.358,0.077 -0.683,0.201 -0.975,0.373 -0.292,0.172 -0.533,0.397 -0.724,0.674 C -4,-2.8 -4.105,-2.46 -4.124,-2.059 h 1.22 c 0.008,-0.22 0.079,-0.406 0.208,-0.559 0.128,-0.153 0.287,-0.278 0.473,-0.373 0.187,-0.095 0.39,-0.165 0.609,-0.208 0.22,-0.043 0.431,-0.064 0.632,-0.064 0.401,0 0.741,0.069 1.018,0.207 0.277,0.139 0.507,0.33 0.688,0.575 0.182,0.243 0.314,0.537 0.395,0.882 0.081,0.344 0.122,0.721 0.122,1.132 V 0.021 H 1.212 C 1.002,-0.437 0.683,-0.774 0.259,-0.99 c -0.426,-0.215 -0.878,-0.322 -1.356,-0.322 -0.555,0 -1.038,0.1 -1.449,0.301 -0.411,0.201 -0.756,0.47 -1.033,0.81 -0.277,0.34 -0.485,0.736 -0.624,1.191 -0.138,0.454 -0.208,0.934 -0.208,1.442 0,0.439 0.058,0.891 0.172,1.355 0.115,0.463 0.307,0.884 0.574,1.262 0.268,0.378 0.622,0.688 1.061,0.932 0.441,0.244 0.981,0.366 1.622,0.366 0.469,0 0.898,-0.103 1.29,-0.308 C 0.701,5.833 1.006,5.524 1.226,5.114 h 0.015 v 1.062 h 1.148 v -6.785 c 0,-1.214 -0.278,-2.123 -0.833,-2.726"
         style="fill:#000000;fill-opacity:1;fill-rule:nonzero;stroke:none"
         transform="matrix(1.3333333,0,0,-1.3333333,632.28299,345.95572)"
         clip-path="url(#clipPath111)" />
      <path
         id="path112"
         d="m 607.267,3016.955 h -1.219 v 7.416 h 1.219 z m -1.219,10.241 h 1.219 v -1.492 h -1.219 z"
         style="fill:#000000;fill-opacity:1;fill-rule:nonzero;stroke:none"
         transform="matrix(1.3333333,0,0,-1.3333333,-170.05341,4370.2161)"
         clip-path="url(#clipPath113)" />
      <path
         id="path114"
         d="m 0,0 v -1.176 h 0.028 c 0.507,0.898 1.31,1.348 2.411,1.348 0.487,0 0.894,-0.068 1.219,-0.201 0.325,-0.134 0.588,-0.32 0.789,-0.56 0.201,-0.239 0.341,-0.523 0.422,-0.853 0.081,-0.33 0.122,-0.696 0.122,-1.097 V -7.416 H 3.772 v 5.02 c 0,0.459 -0.134,0.822 -0.401,1.09 -0.269,0.268 -0.637,0.402 -1.105,0.402 -0.373,0 -0.695,-0.057 -0.968,-0.173 C 1.025,-1.191 0.799,-1.354 0.617,-1.564 0.434,-1.775 0.299,-2.021 0.208,-2.303 0.117,-2.585 0.071,-2.894 0.071,-3.228 V -7.416 H -1.148 V 0 Z"
         style="fill:#000000;fill-opacity:1;fill-rule:nonzero;stroke:none"
         transform="matrix(1.3333333,0,0,-1.3333333,643.69046,337.72172)"
         clip-path="url(#clipPath115)" />
      <path
         id="path116"
         d="m 0,0 c -0.11,0.259 -0.259,0.48 -0.445,0.667 -0.187,0.186 -0.406,0.335 -0.659,0.445 -0.254,0.109 -0.534,0.165 -0.84,0.165 -0.315,0 -0.6,-0.056 -0.853,-0.165 C -3.051,1.002 -3.268,0.851 -3.45,0.66 -3.632,0.469 -3.775,0.246 -3.88,-0.007 -3.986,-0.26 -4.047,-0.531 -4.067,-0.817 h 4.26 C 0.175,-0.531 0.109,-0.258 0,0 m 0.294,-4.762 c -0.555,-0.421 -1.253,-0.632 -2.094,-0.632 -0.594,0 -1.107,0.096 -1.543,0.288 -0.434,0.191 -0.8,0.458 -1.097,0.803 -0.296,0.345 -0.518,0.755 -0.667,1.234 -0.148,0.477 -0.232,0.998 -0.25,1.563 0,0.564 0.085,1.08 0.257,1.549 0.173,0.469 0.414,0.875 0.725,1.219 0.311,0.345 0.679,0.613 1.105,0.804 0.425,0.191 0.891,0.287 1.398,0.287 0.66,0 1.207,-0.137 1.643,-0.409 0.434,-0.273 0.784,-0.619 1.046,-1.04 0.264,-0.421 0.445,-0.881 0.546,-1.377 0.1,-0.497 0.14,-0.971 0.122,-1.42 h -5.552 c -0.009,-0.326 0.029,-0.633 0.115,-0.925 0.086,-0.292 0.225,-0.551 0.416,-0.776 0.191,-0.224 0.436,-0.404 0.731,-0.537 0.297,-0.134 0.647,-0.2 1.048,-0.2 0.516,0 0.939,0.119 1.269,0.358 0.33,0.239 0.548,0.602 0.653,1.09 H 1.37 C 1.208,-3.714 0.848,-4.341 0.294,-4.762"
         style="fill:#000000;fill-opacity:1;fill-rule:nonzero;stroke:none"
         transform="matrix(1.3333333,0,0,-1.3333333,659.40232,340.62958)"
         clip-path="url(#clipPath117)" />
      <path
         id="path118"
         d="m 0,0 c -0.11,0.259 -0.259,0.48 -0.445,0.667 -0.187,0.186 -0.406,0.335 -0.659,0.445 -0.254,0.109 -0.534,0.165 -0.84,0.165 -0.315,0 -0.6,-0.056 -0.853,-0.165 C -3.051,1.002 -3.268,0.851 -3.45,0.66 -3.632,0.469 -3.775,0.246 -3.88,-0.007 -3.986,-0.26 -4.047,-0.531 -4.067,-0.817 h 4.26 C 0.175,-0.531 0.109,-0.258 0,0 m 0.294,-4.762 c -0.555,-0.421 -1.253,-0.632 -2.094,-0.632 -0.594,0 -1.107,0.096 -1.543,0.288 -0.434,0.191 -0.8,0.458 -1.097,0.803 -0.296,0.345 -0.518,0.755 -0.667,1.234 -0.148,0.477 -0.232,0.998 -0.25,1.563 0,0.564 0.085,1.08 0.257,1.549 0.173,0.469 0.414,0.875 0.725,1.219 0.311,0.345 0.679,0.613 1.105,0.804 0.425,0.191 0.891,0.287 1.398,0.287 0.66,0 1.207,-0.137 1.643,-0.409 0.434,-0.273 0.784,-0.619 1.046,-1.04 0.264,-0.421 0.445,-0.881 0.546,-1.377 0.1,-0.497 0.14,-0.971 0.122,-1.42 h -5.552 c -0.009,-0.326 0.029,-0.633 0.115,-0.925 0.086,-0.292 0.225,-0.551 0.416,-0.776 0.191,-0.224 0.436,-0.404 0.731,-0.537 0.297,-0.134 0.647,-0.2 1.048,-0.2 0.516,0 0.939,0.119 1.269,0.358 0.33,0.239 0.548,0.602 0.653,1.09 H 1.37 C 1.208,-3.714 0.848,-4.341 0.294,-4.762"
         style="fill:#000000;fill-opacity:1;fill-rule:nonzero;stroke:none"
         transform="matrix(1.3333333,0,0,-1.3333333,669.67219,340.62958)"
         clip-path="url(#clipPath119)" />
      <path
         id="path120"
         d="m 0,0 v -1.564 h 0.028 c 0.297,0.603 0.66,1.048 1.091,1.334 0.43,0.287 0.975,0.42 1.635,0.402 V -1.12 C 2.266,-1.12 1.85,-1.186 1.506,-1.32 1.162,-1.455 0.884,-1.65 0.674,-1.908 0.464,-2.166 0.31,-2.479 0.215,-2.848 0.119,-3.216 0.071,-3.639 0.071,-4.118 V -7.416 H -1.148 V 0 Z"
         style="fill:#000000;fill-opacity:1;fill-rule:nonzero;stroke:none"
         transform="matrix(1.3333333,0,0,-1.3333333,674.80712,337.72172)"
         clip-path="url(#clipPath121)" />
      <path
         id="path122"
         d="m 638.608,3016.955 h -1.219 v 7.416 h 1.219 z m -1.219,10.241 h 1.219 v -1.492 h -1.219 z"
         style="fill:#000000;fill-opacity:1;fill-rule:nonzero;stroke:none"
         transform="matrix(1.3333333,0,0,-1.3333333,-170.05341,4370.2161)"
         clip-path="url(#clipPath123)" />
      <path
         id="path124"
         d="m 0,0 v -1.176 h 0.028 c 0.507,0.898 1.31,1.348 2.411,1.348 0.487,0 0.894,-0.068 1.219,-0.201 0.325,-0.134 0.588,-0.32 0.789,-0.56 0.201,-0.239 0.341,-0.523 0.422,-0.853 0.081,-0.33 0.122,-0.696 0.122,-1.097 V -7.416 H 3.772 v 5.02 c 0,0.459 -0.134,0.822 -0.401,1.09 -0.269,0.268 -0.637,0.402 -1.105,0.402 -0.373,0 -0.695,-0.057 -0.968,-0.173 C 1.025,-1.191 0.799,-1.354 0.617,-1.564 0.434,-1.775 0.299,-2.021 0.208,-2.303 0.117,-2.585 0.071,-2.894 0.071,-3.228 V -7.416 H -1.148 V 0 Z"
         style="fill:#000000;fill-opacity:1;fill-rule:nonzero;stroke:none"
         transform="matrix(1.3333333,0,0,-1.3333333,685.47912,337.72172)"
         clip-path="url(#clipPath125)" />
      <path
         id="path126"
         d="M 0,0 C 0.282,0.167 0.51,0.387 0.681,0.66 0.853,0.932 0.98,1.241 1.062,1.585 1.143,1.929 1.183,2.274 1.183,2.618 1.183,2.942 1.145,3.263 1.069,3.579 0.992,3.894 0.87,4.179 0.703,4.432 0.536,4.686 0.318,4.889 0.051,5.042 -0.218,5.195 -0.543,5.271 -0.925,5.271 -1.317,5.271 -1.652,5.198 -1.929,5.049 -2.206,4.901 -2.434,4.702 -2.61,4.454 -2.787,4.205 -2.917,3.918 -2.998,3.594 -3.079,3.268 -3.12,2.929 -3.12,2.574 -3.12,2.24 -3.086,1.906 -3.019,1.571 -2.952,1.236 -2.838,0.932 -2.675,0.66 -2.513,0.387 -2.297,0.167 -2.03,0 c 0.268,-0.168 0.603,-0.251 1.005,-0.251 0.401,0 0.743,0.083 1.025,0.251 m 1.556,-3.335 c -0.554,-0.602 -1.424,-0.904 -2.61,-0.904 -0.344,0 -0.695,0.038 -1.055,0.115 -0.358,0.077 -0.683,0.201 -0.975,0.373 -0.292,0.172 -0.533,0.397 -0.724,0.674 C -4,-2.8 -4.105,-2.46 -4.124,-2.059 h 1.22 c 0.008,-0.22 0.079,-0.406 0.208,-0.559 0.128,-0.153 0.287,-0.278 0.473,-0.373 0.187,-0.095 0.39,-0.165 0.609,-0.208 0.22,-0.043 0.431,-0.064 0.632,-0.064 0.401,0 0.741,0.069 1.018,0.207 0.277,0.139 0.507,0.33 0.688,0.575 0.182,0.243 0.314,0.537 0.395,0.882 0.081,0.344 0.122,0.721 0.122,1.132 V 0.021 H 1.212 C 1.002,-0.437 0.683,-0.774 0.259,-0.99 c -0.426,-0.215 -0.878,-0.322 -1.356,-0.322 -0.555,0 -1.038,0.1 -1.449,0.301 -0.411,0.201 -0.756,0.47 -1.033,0.81 -0.277,0.34 -0.485,0.736 -0.624,1.191 -0.138,0.454 -0.208,0.934 -0.208,1.442 0,0.439 0.058,0.891 0.172,1.355 0.115,0.463 0.307,0.884 0.574,1.262 0.268,0.378 0.622,0.688 1.061,0.932 0.441,0.244 0.981,0.366 1.622,0.366 0.469,0 0.898,-0.103 1.29,-0.308 C 0.701,5.833 1.006,5.524 1.226,5.114 h 0.015 v 1.062 h 1.148 v -6.785 c 0,-1.214 -0.278,-2.123 -0.833,-2.726"
         style="fill:#000000;fill-opacity:1;fill-rule:nonzero;stroke:none"
         transform="matrix(1.3333333,0,0,-1.3333333,699.92726,345.95572)"
         clip-path="url(#clipPath127)" />
    </g>
  </g>
</svg>
